HIERARCHY
ROOT Hips
{
	OFFSET 0.0000 0.0000 0.0000
	CHANNELS 6 Xposition Yposition Zposition Zrotation Xrotation Yrotation
	JOINT Ab
	{
		OFFSET -0.0000 8.1305 -0.0000
		CHANNELS 3 Zrotation Xrotation Yrotation
		JOINT Chest
		{
			OFFSET -0.0000 26.2902 -0.0000
			CHANNELS 3 Zrotation Xrotation Yrotation
			JOINT Neck
			{
				OFFSET -0.0000 26.2902 0.0000
				CHANNELS 3 Zrotation Xrotation Yrotation
				JOINT Head
				{
					OFFSET -0.0000 10.8167 0.0000
					CHANNELS 3 Zrotation Xrotation Yrotation
					End Site
					{
						OFFSET -0.0000 16.7167 0.0000
					}
				}
			}
			JOINT LeftCollar
			{
				OFFSET -0.0000 26.2902 0.0000
				CHANNELS 3 Zrotation Xrotation Yrotation
				JOINT LeftShoulder
				{
					OFFSET 19.6667 -0.0000 0.0000
					CHANNELS 3 Zrotation Xrotation Yrotation
					JOINT LeftElbow
					{
						OFFSET 27.2190 0.0000 0.0000
						CHANNELS 3 Zrotation Xrotation Yrotation
						JOINT LeftWrist
						{
							OFFSET 30.7431 0.0000 0.0000
							CHANNELS 3 Zrotation Xrotation Yrotation
							End Site
							{
								OFFSET 0.0000 -14.7500 0.0000
							}
						}
					}
				}
			}
			JOINT RightCollar
			{
				OFFSET -0.0000 26.2902 0.0000
				CHANNELS 3 Zrotation Xrotation Yrotation
				JOINT RightShoulder
				{
					OFFSET -19.6667 0.0000 0.0000
					CHANNELS 3 Zrotation Xrotation Yrotation
					JOINT RightElbow
					{
						OFFSET -27.2190 0.0000 0.0000
						CHANNELS 3 Zrotation Xrotation Yrotation
						JOINT RightWrist
						{
							OFFSET -30.7431 0.0000 0.0000
							CHANNELS 3 Zrotation Xrotation Yrotation
							End Site
							{
								OFFSET -0.0000 -14.7500 0.0000
							}
						}
					}
				}
			}
		}
	}
	JOINT LeftHip
	{
		OFFSET 11.8000 0.0000 0.0000
		CHANNELS 3 Zrotation Xrotation Yrotation
		JOINT LeftKnee
		{
			OFFSET -0.0000 -39.7832 0.0000
			CHANNELS 3 Zrotation Xrotation Yrotation
			JOINT LeftAnkle
			{
				OFFSET -0.0000 -41.7317 0.0000
				CHANNELS 3 Zrotation Xrotation Yrotation
				End Site
				{
					OFFSET -0.0000 -4.9167 16.7167
				}
			}
		}
	}
	JOINT RightHip
	{
		OFFSET -11.8000 0.0000 0.0000
		CHANNELS 3 Zrotation Xrotation Yrotation
		JOINT RightKnee
		{
			OFFSET -0.0000 -39.7832 0.0000
			CHANNELS 3 Zrotation Xrotation Yrotation
			JOINT RightAnkle
			{
				OFFSET -0.0000 -41.7317 0.0000
				CHANNELS 3 Zrotation Xrotation Yrotation
				End Site
				{
					OFFSET -0.0000 -4.9167 16.7167
				}
			}
		}
	}
}
MOTION
Frames: 8
Frame Time: 0.010000
-15.2506 97.0429 179.4996 358.6735 356.9768 179.9207 358.1028 346.9634 359.7172 2.8366 13.2486 359.6174 357.2997 4.9323 359.9285 1.2754 9.0438 359.7126 340.1216 357.3191 15.2277 323.4035 60.9619 332.7621 8.2714 357.5320 326.6990 87.2685 355.9530 347.2310 27.4161 355.8793 343.1797 45.1073 50.1843 5.5039 338.1652 354.0241 30.3740 270.1403 355.0857 5.2335 356.7699 1.7073 0.2481 357.4874 7.1281 4.4572 354.5502 351.9060 13.9472 358.1446 4.1772 9.9064 6.5752 7.9753 10.5893 349.8759 343.2906 313.9228 
-15.2835 97.0395 179.4864 358.6722 356.9557 179.9199 358.0995 346.9650 359.7209 2.8255 13.2738 359.6140 357.2707 4.8998 359.9438 1.3093 9.1081 359.7170 340.1369 357.3227 15.2276 323.2731 60.9300 332.8602 8.2653 357.5211 326.7078 87.3373 355.9514 347.2301 27.4135 355.8630 343.1829 45.0970 50.1825 5.5230 338.1665 353.9832 30.3869 270.1231 355.1054 5.2027 356.7435 1.6959 0.2239 357.4889 7.1262 4.4590 354.6672 351.8979 13.9649 358.1155 4.1531 9.9236 6.5942 7.9949 10.5627 349.8690 343.2891 313.9368 
-15.3145 97.0348 179.4783 358.6771 356.9289 179.9254 358.0891 346.9719 359.7248 2.8206 13.2862 359.6087 357.2870 4.8851 359.9405 1.3064 9.1645 359.7056 340.1474 357.3158 15.2323 323.2537 60.9298 332.8747 8.2895 357.5226 326.7251 87.3001 355.9944 347.1931 27.4347 355.8679 343.2120 45.1098 50.1105 5.4532 338.2315 353.9829 30.4572 270.1805 355.0957 5.3517 356.7313 1.6622 0.1870 357.4797 7.1524 4.4793 354.6815 351.8943 13.9702 358.0985 4.1230 9.9155 6.5998 8.0142 10.5697 349.8701 343.2687 313.9359 
-15.3461 97.0302 179.4705 358.6827 356.8998 179.9253 358.0896 346.9821 359.7174 2.7920 13.2931 359.6196 357.3565 4.8610 359.9196 1.2379 9.2434 359.6944 340.1438 357.3148 15.2292 323.2937 60.8913 332.8808 8.2356 357.5389 326.6159 88.4291 356.2388 347.7823 27.4277 355.8668 343.1989 45.1353 50.1428 5.4627 338.1914 353.9900 30.4513 270.2183 355.0721 5.3200 356.7239 1.6280 0.1382 357.4558 7.1704 4.5269 354.5567 351.8563 13.9744 358.0831 4.0777 9.9077 6.6072 8.0561 10.5460 349.8930 343.2337 313.9542 
-15.3783 97.0262 179.4623 358.6907 356.8672 179.9208 358.0784 346.9858 359.7237 2.7948 13.3034 359.6327 357.3632 4.8637 359.9087 1.2188 9.2784 359.7059 340.1213 357.3300 15.2354 323.3688 60.8685 332.8275 8.1732 357.5531 326.6285 88.6157 356.2337 347.8308 27.4204 355.8866 343.2173 45.1789 50.1238 5.4211 338.1954 353.9987 30.4719 270.2918 355.0630 5.4080 356.7041 1.5684 0.1297 357.4682 7.2354 4.5280 354.7381 351.8304 13.9660 358.0657 4.0340 9.9205 6.6202 8.0877 10.5731 349.8952 343.2105 313.9121 
-15.4108 97.0217 179.4555 358.7044 356.8409 179.9219 358.0726 347.0058 359.7407 2.7931 13.2974 359.6248 357.3630 4.8948 359.9089 1.2301 9.2914 359.7049 340.1172 357.3133 15.2219 323.2988 60.8480 332.9126 8.2254 357.5101 326.6268 88.4979 356.2452 347.7767 27.4193 355.8934 343.2172 45.1810 50.1682 5.4402 338.1654 353.9916 30.4274 270.3392 355.0096 5.4334 356.6795 1.4721 0.1156 357.4942 7.3793 4.5656 354.4678 351.7314 13.9451 358.0591 3.9953 9.8634 6.6154 8.1256 10.6152 349.8990 343.1920 313.9214 
-15.4519 97.0169 179.4512 358.7005 356.8082 179.9201 358.0562 347.0235 359.7365 2.7789 13.2930 359.6402 357.4041 4.9227 359.8929 1.2123 9.3031 359.6791 340.1051 357.3309 15.1812 323.2350 60.7809 333.0287 8.1564 357.5368 326.5924 88.4697 356.2518 347.6894 27.4037 355.8781 343.2144 45.2343 50.1700 5.4128 338.1295 353.9979 30.4125 270.3618 354.9807 5.4743 356.6487 1.4186 0.0632 357.4852 7.4269 4.5865 354.6381 351.6993 13.9676 358.0194 3.9367 9.8272 6.6396 8.1824 10.6413 349.9046 343.1574 313.9245 
-15.4886 97.0088 179.4492 358.7099 356.7604 179.9196 358.0565 347.0247 359.7400 2.7603 13.3040 359.6418 357.4112 4.8482 359.9083 1.1987 9.4390 359.7095 340.1102 357.3249 15.2082 323.3401 60.8242 332.9051 8.2194 357.5179 326.6212 88.6444 356.2486 347.8892 27.4135 355.8931 343.2384 45.2512 50.1496 5.3757 338.1630 353.9903 30.4567 270.3601 355.0018 5.4721 356.6393 1.3503 0.0237 357.4700 7.4685 4.6023 354.7244 351.6876 13.9805 357.9985 3.8667 9.8173 6.6597 8.2252 10.6441 349.9231 343.1211 313.9205 
